<svg xmlns="http://www.w3.org/2000/svg" width="3196" height="1292" viewBox="0 0 3196 1292" version="1.1"><path d="M 1368.670 110.120 C 1299.321 116.797, 1241.993 168.609, 1226.783 238.352 C 1224.874 247.108, 1224.570 251.518, 1224.570 270.500 C 1224.570 289.482, 1224.874 293.892, 1226.783 302.648 C 1237.619 352.337, 1268.985 392.817, 1313.500 414.563 C 1337.761 426.414, 1352.385 429.964, 1380 430.703 C 1396.744 431.151, 1401.208 430.933, 1411.583 429.162 C 1504.331 413.330, 1563.836 322.293, 1540.958 231.228 C 1521.474 153.670, 1448.575 102.427, 1368.670 110.120" stroke="none" fill="#ec6c04" fill-rule="evenodd"/><path d="M 1706 41.342 C 1706 41.551, 1711.246 45.915, 1717.658 51.040 C 1760.005 84.891, 1783.949 121.416, 1796.435 171.210 C 1802.895 196.974, 1805.163 214.139, 1805.754 241.757 C 1806.303 267.385, 1805.301 282.021, 1801.427 305 C 1781.450 423.490, 1697.328 542.886, 1562.500 644.114 C 1549.169 654.123, 1532.418 666, 1531.632 666 C 1531.284 666, 1531 623.024, 1531 570.497 L 1531 474.994 1379.750 475.247 L 1228.500 475.500 1228.247 647.139 L 1227.994 818.777 1210.674 824.799 C 1083.273 869.092, 923.451 904.109, 753.500 924.965 C 735.350 927.193, 719.263 929.225, 717.750 929.482 L 715 929.950 715.008 790.225 C 715.013 698.674, 715.372 648.259, 716.052 644 C 718.286 629.991, 725.886 619.288, 737.439 613.882 C 751.543 607.282, 740.200 607.660, 935.250 607.281 L 1112 606.937 1112 540.931 L 1112 474.926 849.250 475.281 C 560.764 475.670, 578.231 475.302, 550.202 481.588 C 474.177 498.639, 429.016 552.314, 415.984 641.110 C 412.084 667.685, 411.759 684.342, 412.501 819.625 L 413.210 948.749 362.855 949.454 C 298.066 950.361, 183.571 948.639, 66 944.988 C 29.682 943.861, 22.454 943.787, 23.219 944.552 C 24.170 945.503, 44.655 950.753, 65.800 955.465 C 230.414 992.146, 479.633 1003.686, 756 987.424 C 878.981 980.188, 1025.995 964.536, 1122.108 948.445 C 1371.701 906.661, 1586.897 813.074, 1738 680.600 C 1754.084 666.500, 1786.012 634.971, 1799.874 619.500 C 1874.706 535.984, 1917.239 451.408, 1929.621 361.500 C 1932.128 343.290, 1932.140 298.773, 1929.641 281 C 1926.150 256.170, 1919.792 231.553, 1911.314 210.044 C 1879.412 129.106, 1820.851 77.384, 1727 47.252 C 1710.847 42.066, 1706 40.702, 1706 41.342 M 1934.068 485.750 C 1931.684 491.663, 1926.007 504.150, 1921.451 513.500 C 1871.922 615.157, 1785.118 708.453, 1668.198 785.695 L 1653.897 795.143 1654.461 926.821 C 1655.062 1067.016, 1655.255 1077.500, 1657.579 1096.384 C 1663.980 1148.407, 1681.341 1188.419, 1709.946 1217.075 C 1738.859 1246.039, 1775.062 1261.418, 1825 1265.950 C 1832.629 1266.642, 1923.592 1266.994, 2095.250 1266.997 L 2354 1267 2354 1217.660 C 2354 1190.523, 2353.704 1160.823, 2353.343 1151.660 L 2352.686 1135 2178.474 1135 C 1988.583 1135, 1993.600 1135.142, 1981 1129.405 C 1969.544 1124.190, 1963.932 1118.356, 1959.708 1107.272 C 1957.509 1101.502, 1957.508 1101.465, 1957.223 1011.750 L 1956.939 922 2154.977 922 L 2353.015 922 2352.757 857.250 L 2352.500 792.500 2154.750 792.248 L 1957 791.995 1957 719.657 C 1957 650.580, 1957.090 646.967, 1959.001 639.496 C 1963.258 622.850, 1972.900 614.177, 1992.517 609.348 C 1998.958 607.763, 2013.217 607.602, 2176.093 607.281 L 2352.686 606.932 2353.340 588.216 C 2353.700 577.922, 2353.996 548.237, 2353.997 522.250 L 2354 475 2146.201 475 L 1938.401 475 1934.068 485.750 M 2637.500 476.033 C 2596.155 478.173, 2562.509 488.400, 2534.500 507.341 C 2521.723 515.981, 2503.160 534.796, 2494.383 548.001 C 2476.961 574.215, 2466.218 605.405, 2460.283 647 C 2458.617 658.678, 2458.500 673.402, 2458.500 871 C 2458.500 1097.858, 2458.303 1088.381, 2463.604 1116.103 C 2471.986 1159.927, 2487.419 1191.465, 2512.983 1217.007 C 2528.732 1232.743, 2542.064 1241.726, 2562.901 1250.641 C 2581.288 1258.507, 2603.642 1263.768, 2628 1265.959 C 2635.562 1266.639, 2728.102 1266.994, 2898.250 1266.997 L 3157 1267 3157 1201 L 3157 1135 2982.131 1135 C 2789.636 1135, 2796.579 1135.212, 2783 1128.909 C 2775.271 1125.321, 2768.767 1119.327, 2765.339 1112.631 C 2760.090 1102.380, 2760.036 1101.325, 2760.017 1008.250 L 2760 922 2958 922 L 3156 922 3156 857 L 3156 792 2958 792 L 2760 792 2760.008 721.250 C 2760.012 677.306, 2760.408 648.037, 2761.052 644 C 2763.286 629.991, 2770.886 619.288, 2782.439 613.882 C 2796.543 607.282, 2785.200 607.660, 2980.250 607.281 L 3157 606.937 3157 540.968 L 3157 475 2904.250 475.154 C 2765.238 475.239, 2645.200 475.634, 2637.500 476.033 M 1524 865.133 C 1511.753 870.865, 1475.503 886.231, 1459 892.688 C 1394.511 917.917, 1317.539 941.065, 1246.250 956.668 L 1229 960.444 1229 1113.722 L 1229 1267 1380 1267 L 1531 1267 1531 1064.500 C 1531 953.125, 1530.888 862.021, 1530.750 862.046 C 1530.612 862.071, 1527.575 863.461, 1524 865.133 M 413 1041.716 C 413 1100.293, 420.291 1139.024, 438.077 1174.924 C 446.817 1192.566, 454.950 1203.949, 468.500 1217.504 C 496.982 1245.997, 533.666 1261.521, 583 1265.959 C 590.562 1266.639, 683.102 1266.994, 853.250 1266.997 L 1112 1267 1112 1201 L 1112 1135 937.131 1135 C 744.636 1135, 751.579 1135.212, 738 1128.909 C 730.271 1125.321, 723.767 1119.327, 720.339 1112.631 C 715.567 1103.312, 715.036 1097.619, 715.017 1055.602 L 715 1016.704 694.750 1017.397 C 597.408 1020.728, 511.128 1020.731, 429.750 1017.407 L 413 1016.723 413 1041.716" stroke="none" fill="#04448c" fill-rule="evenodd"/></svg>