<svg xmlns="http://www.w3.org/2000/svg" width="700" height="495" viewBox="0 0 700 495" version="1.1"><path d="M 301.081 139.588 C 294.025 141.486, 290.090 143.994, 284.614 150.084 C 270.343 165.958, 275.997 191.634, 295.780 200.784 C 300.344 202.895, 303.025 203.434, 309.048 203.451 C 315.585 203.471, 317.489 203.034, 323.272 200.187 C 334.946 194.440, 341.335 184.126, 341.356 170.992 C 341.382 155, 331.121 142.498, 315.201 139.123 C 308.685 137.742, 307.846 137.770, 301.081 139.588" stroke="none" fill="#ec6c04" fill-rule="evenodd"/><path d="M 378.184 130.250 C 388.552 140.233, 392.423 150.252, 392.383 167 C 392.345 182.854, 388.521 194.645, 378.423 210.048 C 372.544 219.017, 358.460 233.866, 347.500 242.652 L 339.500 249.065 339 230.283 L 338.500 211.500 308 211.500 L 277.500 211.500 277.237 246.105 L 276.974 280.710 264.737 284.319 C 241.278 291.238, 220.569 295.729, 194.892 299.463 C 185.326 300.854, 177.162 301.994, 176.750 301.996 C 176.338 301.998, 176 288.930, 176 272.955 L 176 243.909 178.455 241.455 L 180.909 239 217.983 239 L 255.056 239 254.778 225.250 L 254.500 211.500 205 211.213 C 153.658 210.916, 143.260 211.464, 135.545 214.877 C 126.127 219.043, 118.616 229.069, 116.125 240.799 C 115.434 244.055, 115 257.707, 115 276.209 L 115 306.319 76.350 305.710 C 53.870 305.355, 38.077 305.471, 38.600 305.987 C 39.824 307.194, 56.980 310.595, 71 312.410 C 120.650 318.839, 204.877 315.955, 261.500 305.885 C 332.255 293.303, 389.357 257.911, 410.555 213.500 C 416.411 201.230, 418.284 193.558, 418.365 181.500 C 418.502 161.311, 410.395 144.910, 395.174 134.580 C 389.256 130.563, 376.868 125, 373.843 125 C 373.232 125, 375.185 127.362, 378.184 130.250 M 419.023 212.739 C 418.469 213.708, 416.441 217.595, 414.516 221.377 C 404.944 240.183, 391.230 254.805, 365.750 273.370 L 362 276.102 362.008 300.801 C 362.021 339.134, 363.850 349.168, 372.601 358.902 C 378.593 365.565, 385.702 368.847, 396.809 370.076 C 401.589 370.604, 427.325 370.916, 454 370.769 L 502.500 370.500 502.500 357 L 502.500 343.500 465.354 343 C 430.623 342.533, 428.071 342.376, 426.104 340.595 C 424.111 338.791, 424 337.721, 424 320.357 L 424 302.023 463.250 301.762 L 502.500 301.500 502.779 288.250 L 503.058 275 463.529 275 L 424 275 424 259.155 C 424 244.320, 424.134 243.189, 426.104 241.405 C 428.071 239.624, 430.623 239.467, 465.354 239 L 502.500 238.500 502.500 225 L 502.500 211.500 461.265 211.239 C 422.785 210.995, 419.963 211.095, 419.023 212.739 M 553.769 212.079 C 538.199 214.373, 527.417 225.067, 523.974 241.630 C 523.280 244.969, 523.011 263.305, 523.204 294.130 C 523.498 341.106, 523.519 341.548, 525.834 347.282 C 530.536 358.932, 537.688 365.541, 549 368.690 C 554.900 370.333, 560.437 370.500, 609 370.500 L 662.500 370.500 662.778 356.785 L 663.056 343.070 625.439 342.785 L 587.822 342.500 585.911 340.139 C 584.189 338.012, 584 336.010, 584 319.901 L 584 302.023 623.250 301.762 L 662.500 301.500 662.779 288.250 L 663.058 275 623.529 275 L 584 275 584 259.455 C 584 244.283, 584.059 243.850, 586.455 241.455 L 588.909 239 625.983 239 L 663.056 239 662.778 225.250 L 662.500 211.500 611 211.367 C 582.675 211.295, 556.921 211.615, 553.769 212.079 M 330 292.032 C 320.953 296.052, 301.583 302.467, 288.500 305.778 L 277.500 308.562 277.235 338.963 C 277.029 362.618, 277.251 369.542, 278.235 370.166 C 279.695 371.093, 335.041 371.305, 337.418 370.393 C 338.824 369.853, 339 365.304, 339 329.393 C 339 297.707, 338.731 289.016, 337.750 289.072 C 337.063 289.112, 333.575 290.444, 330 292.032 M 144.622 319.765 L 114.744 320.030 115.236 330.765 C 116.161 350.952, 123.412 362.568, 138.645 368.269 C 144.407 370.424, 145.378 370.460, 199.500 370.480 L 254.500 370.500 254.778 356.785 L 255.056 343.070 217.439 342.785 L 179.822 342.500 177.911 340.139 C 176.352 338.214, 176 336.151, 176 328.948 C 176 324.092, 175.662 319.979, 175.250 319.809 C 174.838 319.639, 161.055 319.619, 144.622 319.765" stroke="none" fill="#04448c" fill-rule="evenodd"/></svg>